<svg width="257" height="56" viewBox="0 0 257 56" fill="none" xmlns="http://www.w3.org/2000/svg">
<path d="M0.00017577 21L6.24018 7H9.44018L15.7002 21H12.3002L7.18018 8.64H8.46018L3.32018 21H0.00017577ZM3.12018 18L3.98018 15.54H11.1802L12.0602 18H3.12018ZM17.1527 21V7H20.3927V18.36H27.4127V21H17.1527ZM35.2867 21.24C33.3001 21.24 31.7467 20.6867 30.6267 19.58C29.5067 18.4733 28.9467 16.8933 28.9467 14.84V7H32.1867V14.72C32.1867 16.0533 32.4601 17.0133 33.0067 17.6C33.5534 18.1867 34.3201 18.48 35.3067 18.48C36.2934 18.48 37.0601 18.1867 37.6067 17.6C38.1534 17.0133 38.4267 16.0533 38.4267 14.72V7H41.6267V14.84C41.6267 16.8933 41.0667 18.4733 39.9467 19.58C38.8267 20.6867 37.2734 21.24 35.2867 21.24ZM44.8285 21V7H47.5085L53.4685 16.88H52.0485L57.9085 7H60.5685L60.6085 21H57.5685L57.5485 11.66H58.1085L53.4285 19.52H51.9685L47.1885 11.66H47.8685V21H44.8285ZM63.93 21V7H67.17V21H63.93ZM70.4925 21V7H73.1725L81.4325 17.08H80.1325V7H83.3325V21H80.6725L72.3925 10.92H73.6925V21H70.4925ZM92.8649 21.24C90.8782 21.24 89.3249 20.6867 88.2049 19.58C87.0849 18.4733 86.5249 16.8933 86.5249 14.84V7H89.7649V14.72C89.7649 16.0533 90.0382 17.0133 90.5849 17.6C91.1315 18.1867 91.8982 18.48 92.8849 18.48C93.8715 18.48 94.6382 18.1867 95.1849 17.6C95.7315 17.0133 96.0049 16.0533 96.0049 14.72V7H99.2049V14.84C99.2049 16.8933 98.6449 18.4733 97.5249 19.58C96.4049 20.6867 94.8515 21.24 92.8649 21.24ZM102.407 21V7H105.087L111.047 16.88H109.627L115.487 7H118.147L118.187 21H115.147L115.127 11.66H115.687L111.007 19.52H109.547L104.767 11.66H105.447V21H102.407ZM131.772 21.24C130.652 21.24 129.579 21.0933 128.552 20.8C127.526 20.4933 126.699 20.1 126.072 19.62L127.172 17.18C127.772 17.6067 128.479 17.96 129.292 18.24C130.119 18.5067 130.952 18.64 131.792 18.64C132.432 18.64 132.946 18.58 133.332 18.46C133.732 18.3267 134.026 18.1467 134.212 17.92C134.399 17.6933 134.492 17.4333 134.492 17.14C134.492 16.7667 134.346 16.4733 134.052 16.26C133.759 16.0333 133.372 15.8533 132.892 15.72C132.412 15.5733 131.879 15.44 131.292 15.32C130.719 15.1867 130.139 15.0267 129.552 14.84C128.979 14.6533 128.452 14.4133 127.972 14.12C127.492 13.8267 127.099 13.44 126.792 12.96C126.499 12.48 126.352 11.8667 126.352 11.12C126.352 10.32 126.566 9.59333 126.992 8.94C127.432 8.27333 128.086 7.74667 128.952 7.36C129.832 6.96 130.932 6.76 132.252 6.76C133.132 6.76 133.999 6.86667 134.852 7.08C135.706 7.28 136.459 7.58667 137.112 8L136.112 10.46C135.459 10.0867 134.806 9.81333 134.152 9.64C133.499 9.45333 132.859 9.36 132.232 9.36C131.606 9.36 131.092 9.43333 130.692 9.58C130.292 9.72667 130.006 9.92 129.832 10.16C129.659 10.3867 129.572 10.6533 129.572 10.96C129.572 11.32 129.719 11.6133 130.012 11.84C130.306 12.0533 130.692 12.2267 131.172 12.36C131.652 12.4933 132.179 12.6267 132.752 12.76C133.339 12.8933 133.919 13.0467 134.492 13.22C135.079 13.3933 135.612 13.6267 136.092 13.92C136.572 14.2133 136.959 14.6 137.252 15.08C137.559 15.56 137.712 16.1667 137.712 16.9C137.712 17.6867 137.492 18.4067 137.052 19.06C136.612 19.7133 135.952 20.24 135.072 20.64C134.206 21.04 133.106 21.24 131.772 21.24ZM139.926 21V7H143.166V21H139.926ZM146.489 21V7H152.849C154.369 7 155.709 7.29333 156.869 7.88C158.029 8.45333 158.935 9.26 159.589 10.3C160.242 11.34 160.569 12.5733 160.569 14C160.569 15.4133 160.242 16.6467 159.589 17.7C158.935 18.74 158.029 19.5533 156.869 20.14C155.709 20.7133 154.369 21 152.849 21H146.489ZM149.729 18.34H152.689C153.622 18.34 154.429 18.1667 155.109 17.82C155.802 17.46 156.335 16.9533 156.709 16.3C157.095 15.6467 157.289 14.88 157.289 14C157.289 13.1067 157.095 12.34 156.709 11.7C156.335 11.0467 155.802 10.5467 155.109 10.2C154.429 9.84 153.622 9.66 152.689 9.66H149.729V18.34ZM163.012 21V7H173.592V9.6H166.232V18.4H173.852V21H163.012ZM165.992 15.16V12.64H172.732V15.16H165.992ZM182.094 21V7H188.074C190.021 7 191.534 7.45333 192.614 8.36C193.694 9.25333 194.234 10.4933 194.234 12.08C194.234 13.12 193.987 14.02 193.494 14.78C193.001 15.5267 192.301 16.1 191.394 16.5C190.487 16.9 189.407 17.1 188.154 17.1H183.894L185.334 15.68V21H182.094ZM190.994 21L187.494 15.92H190.954L194.494 21H190.994ZM185.334 16.04L183.894 14.52H187.974C188.974 14.52 189.721 14.3067 190.214 13.88C190.707 13.44 190.954 12.84 190.954 12.08C190.954 11.3067 190.707 10.7067 190.214 10.28C189.721 9.85333 188.974 9.64 187.974 9.64H183.894L185.334 8.1V16.04ZM194.961 21L201.201 7H204.401L210.661 21H207.261L202.141 8.64H203.421L198.281 21H194.961ZM198.081 18L198.941 15.54H206.141L207.021 18H198.081ZM212.114 21V7H215.354V21H212.114ZM218.676 21V7H221.916V18.36H228.936V21H218.676ZM235.288 21.24C234.168 21.24 233.094 21.0933 232.068 20.8C231.041 20.4933 230.214 20.1 229.588 19.62L230.688 17.18C231.288 17.6067 231.994 17.96 232.808 18.24C233.634 18.5067 234.468 18.64 235.308 18.64C235.948 18.64 236.461 18.58 236.848 18.46C237.248 18.3267 237.541 18.1467 237.728 17.92C237.914 17.6933 238.008 17.4333 238.008 17.14C238.008 16.7667 237.861 16.4733 237.568 16.26C237.274 16.0333 236.888 15.8533 236.408 15.72C235.928 15.5733 235.394 15.44 234.808 15.32C234.234 15.1867 233.654 15.0267 233.068 14.84C232.494 14.6533 231.968 14.4133 231.488 14.12C231.008 13.8267 230.614 13.44 230.308 12.96C230.014 12.48 229.868 11.8667 229.868 11.12C229.868 10.32 230.081 9.59333 230.508 8.94C230.948 8.27333 231.601 7.74667 232.468 7.36C233.348 6.96 234.448 6.76 235.768 6.76C236.648 6.76 237.514 6.86667 238.368 7.08C239.221 7.28 239.974 7.58667 240.628 8L239.628 10.46C238.974 10.0867 238.321 9.81333 237.668 9.64C237.014 9.45333 236.374 9.36 235.748 9.36C235.121 9.36 234.608 9.43333 234.208 9.58C233.808 9.72667 233.521 9.92 233.348 10.16C233.174 10.3867 233.088 10.6533 233.088 10.96C233.088 11.32 233.234 11.6133 233.528 11.84C233.821 12.0533 234.208 12.2267 234.688 12.36C235.168 12.4933 235.694 12.6267 236.268 12.76C236.854 12.8933 237.434 13.0467 238.008 13.22C238.594 13.3933 239.128 13.6267 239.608 13.92C240.088 14.2133 240.474 14.6 240.768 15.08C241.074 15.56 241.228 16.1667 241.228 16.9C241.228 17.6867 241.008 18.4067 240.568 19.06C240.128 19.7133 239.468 20.24 238.588 20.64C237.721 21.04 236.621 21.24 235.288 21.24Z" fill="#104272"/>
</svg>
