<svg width="61" height="18" viewBox="0 0 61 18" fill="none" xmlns="http://www.w3.org/2000/svg">
<path d="M0 0H55L59.5 9L55 18H0V0Z" fill="#E67429"/>
<path d="M13.662 13V6H15.002L17.982 10.94H17.272L20.202 6H21.532L21.552 13H20.032L20.022 8.33H20.302L17.962 12.26H17.232L14.842 8.33H15.182V13H13.662ZM23.2128 13V6H28.5028V7.3H24.8328V13H23.2128ZM24.7128 10.45V9.15H28.0728V10.45H24.7128ZM33.0716 13V6.6L33.7716 7.3H31.6716V6H34.6916V13H33.0716ZM38.2876 13.12C37.8009 13.12 37.3176 13.0567 36.8376 12.93C36.3642 12.7967 35.9576 12.61 35.6176 12.37L36.2576 11.13C36.5242 11.3233 36.8309 11.4767 37.1776 11.59C37.5309 11.7033 37.8876 11.76 38.2476 11.76C38.6542 11.76 38.9742 11.68 39.2076 11.52C39.4409 11.36 39.5576 11.1367 39.5576 10.85C39.5576 10.67 39.5109 10.51 39.4176 10.37C39.3242 10.23 39.1576 10.1233 38.9176 10.05C38.6842 9.97667 38.3542 9.94 37.9276 9.94H36.1376L36.4976 6H40.7676V7.3H37.0776L37.9176 6.56L37.6676 9.37L36.8276 8.63H38.3076C39.0009 8.63 39.5576 8.72667 39.9776 8.92C40.4042 9.10667 40.7142 9.36333 40.9076 9.69C41.1009 10.0167 41.1976 10.3867 41.1976 10.8C41.1976 11.2133 41.0942 11.5967 40.8876 11.95C40.6809 12.2967 40.3609 12.58 39.9276 12.8C39.5009 13.0133 38.9542 13.12 38.2876 13.12Z" fill="white"/>
</svg>
