<svg width="89" height="84" viewBox="0 0 89 84" fill="none" xmlns="http://www.w3.org/2000/svg">
<path d="M49.3289 32.4191C49.4576 32.425 49.7205 32.3726 49.8609 32.3513C50.2411 32.2949 50.6206 32.2357 51 32.1736L53.9927 31.7203C54.1813 31.6901 55.0772 31.5443 55.1987 31.5553C55.2295 32.039 55.3153 33.2161 55.1157 33.6697C55.0497 33.8198 54.5645 33.6929 54.8453 34.2394C54.8552 34.3418 54.9804 34.7872 55.033 34.8563C55.0264 34.9704 55.2497 35.6039 55.2955 35.785C55.3601 35.997 55.4847 36.5933 55.6013 36.7254C55.7353 36.7635 56.3038 36.7521 56.4669 36.7523L58.9509 36.7534C59.3753 36.7527 59.8295 36.7308 60.2486 36.7828C60.4422 36.8066 60.4446 37.1381 60.4539 37.2726C60.7106 37.2958 61.1322 37.2855 61.3984 37.2857L63.0011 37.2853L68.0618 37.2844L69.5595 37.2825C70.0578 37.282 70.4792 37.1821 70.7579 37.6754C70.7991 37.9634 70.8486 40.2594 70.7777 40.3784C70.7483 40.5191 70.6006 40.7234 70.4545 40.755C70.3742 40.7621 70.3566 40.7706 70.2937 40.7803C69.937 40.8351 69.4493 40.7758 69.1007 40.8029C69.0391 40.787 68.9401 40.7296 68.8803 40.6983L33.866 40.7028L25.7221 40.7025L22.7877 40.6965C22.4148 40.6972 22.0317 40.6875 21.6607 40.7159C21.6221 40.7189 21.4804 40.7941 21.4111 40.8104C21.3619 40.7994 21.0851 40.8018 21.0175 40.8061C20.6678 40.8286 20.3836 40.7893 20.0422 40.7522C19.7994 40.6469 19.7192 40.431 19.72 40.1881C19.7222 39.4798 19.702 38.7653 19.7293 38.0579C19.7539 37.9606 19.8208 37.7755 19.8935 37.7115C20.1497 37.4855 20.5552 37.5385 20.8739 37.5437C21.6565 37.5761 22.5799 37.5387 23.378 37.546L27.7599 37.5729C27.9472 37.5727 28.9423 37.589 29.0603 37.5568C29.1056 37.4713 29.1333 37.394 29.2134 37.3439L29.2834 37.3186C29.279 37.2872 29.2807 37.2954 29.2867 37.2633L29.2981 37.2711C29.3432 37.1995 29.376 36.8857 29.3351 36.7918C29.416 36.7138 29.4983 36.6881 29.6114 36.681C30.0125 36.6561 30.4495 36.6662 30.8523 36.6664L33.2328 36.6711C33.6017 36.6741 34.0154 36.7355 34.3619 36.6438C34.3793 36.6558 34.4008 36.6711 34.4272 36.6894C35.0801 36.7171 35.7551 36.6928 36.4086 36.6982C36.5505 36.6992 36.866 36.6717 36.9421 36.7033C38.0955 36.6707 39.3949 36.7016 40.5601 36.7025L48.9263 36.7108C49.02 36.5141 49.1423 36.0836 49.209 35.8576C49.2904 35.5831 49.4147 35.2187 49.4768 34.9459C49.5452 34.7753 49.6215 34.4982 49.6726 34.3186C49.6807 34.2918 49.6878 34.2512 49.6937 34.2228C49.6396 34.1601 49.3161 34.1687 49.2959 33.9425C49.2699 33.6534 49.3003 33.3681 49.3155 33.0795C49.3249 32.8595 49.3293 32.6393 49.3289 32.4191ZM49.6726 34.3186C49.6215 34.4982 49.5452 34.7753 49.4768 34.9459C49.4147 35.2187 49.2904 35.5831 49.209 35.8576C49.1423 36.0836 49.02 36.5141 48.9263 36.7108L40.5601 36.7025C39.3949 36.7016 38.0955 36.6707 36.9421 36.7033C36.866 36.6717 36.5505 36.6992 36.4086 36.6982C35.7551 36.6928 35.0801 36.7171 34.4272 36.6894C34.4008 36.6711 34.3793 36.6558 34.3619 36.6438C34.0154 36.7355 33.6017 36.6741 33.2328 36.6711L30.8523 36.6664C30.4495 36.6662 30.0125 36.6561 29.6114 36.681C29.4983 36.6881 29.416 36.7138 29.3351 36.7918C29.376 36.8857 29.3432 37.1995 29.2981 37.2711L29.2867 37.2633C29.2807 37.2954 29.279 37.2872 29.2834 37.3186C29.3951 37.3201 29.5815 37.2951 29.7109 37.2917C30.4528 37.2719 31.196 37.3033 31.9359 37.3061L36.1232 37.2926L54.0677 37.3024L59.0526 37.2913C59.4312 37.2926 59.8099 37.2919 60.1883 37.2889C60.244 37.288 60.4387 37.2698 60.4539 37.2726C60.4446 37.1381 60.4422 36.8066 60.2486 36.7828C59.8295 36.7308 59.3753 36.7527 58.9509 36.7534L56.4669 36.7523C56.3038 36.7521 55.7353 36.7635 55.6013 36.7254C55.4847 36.5933 55.3601 35.997 55.2955 35.785C55.2497 35.6039 55.0264 34.9704 55.033 34.8563C54.9804 34.7872 54.8552 34.3418 54.8453 34.2394C54.5645 33.6929 55.0497 33.8198 55.1157 33.6697C55.3153 33.2161 55.2295 32.039 55.1987 31.5553C55.0772 31.5443 54.1813 31.6901 53.9927 31.7203L51 32.1736C50.6206 32.2357 50.2411 32.2949 49.8609 32.3513C49.7205 32.3726 49.4576 32.425 49.3289 32.4191C49.3293 32.6393 49.3249 32.8595 49.3155 33.0795C49.3003 33.3681 49.2699 33.6534 49.2959 33.9425C49.3161 34.1687 49.6396 34.1601 49.6937 34.2228C49.6878 34.2512 49.6807 34.2918 49.6726 34.3186ZM41.8422 39.0259C41.8567 39.0268 41.8713 39.0276 41.8858 39.0283C42.224 39.0446 42.6673 39.0311 43.0156 39.0311L45.1835 39.03L51.6662 39.0306H63.4834C65.1175 39.0298 66.7527 39.0293 68.3868 39.0343C68.4838 39.0345 68.6028 39.0401 68.675 38.9761C68.7241 38.891 68.7194 38.8055 68.7051 38.7108C68.5307 38.5634 67.8721 38.6201 67.6233 38.6201L65.6191 38.6195L59 38.6182H37.8515L33.2935 38.6184L31.8446 38.6182C31.6336 38.618 31.4235 38.6122 31.2123 38.6141C30.9782 38.6163 30.7683 38.8085 30.9795 39.0006C31.2134 39.0815 35.5067 39.0304 36.0321 39.0304L38.5161 39.0317C38.976 39.0321 39.5001 39.0457 39.954 39.0257C40.3993 39.0534 41.3793 39.0425 41.8422 39.0259ZM29.053 39.0283C29.1346 38.9436 29.1652 38.7724 29.0818 38.6738C29.0312 38.6141 28.9579 38.6274 28.8884 38.6214C28.4528 38.616 28.013 38.6178 27.5771 38.6175L24.9455 38.6188L22.8933 38.6199C22.617 38.6201 22.1335 38.6044 21.8703 38.6231C21.7799 38.6803 21.7869 38.6603 21.7525 38.769C21.7238 38.8599 21.7601 39.0227 21.8814 39.0272C22.122 39.0367 22.3702 39.0319 22.6132 39.0319L24.2018 39.0313L27.4125 39.0317C27.941 39.0313 28.5337 39.0446 29.053 39.0283Z" fill="#A6A5A7"/>
<path d="M49.3293 32.4191C49.458 32.425 49.7209 32.3726 49.8613 32.3513C50.2415 32.2949 50.621 32.2357 51.0003 32.1736L53.9931 31.7203C54.1816 31.6901 55.0775 31.5443 55.199 31.5553C55.2298 32.039 55.3156 33.2161 55.1161 33.6697C55.05 33.8198 54.5649 33.6929 54.8456 34.2394C54.8555 34.3418 54.9807 34.7872 55.0333 34.8563C55.0267 34.9704 55.25 35.6039 55.2958 35.785C55.3605 35.997 55.485 36.5933 55.6016 36.7254C55.7356 36.7635 56.3042 36.7521 56.4672 36.7523L58.9513 36.7534C59.3757 36.7527 59.8298 36.7308 60.2489 36.7828C60.4426 36.8066 60.445 37.1381 60.4542 37.2726C60.439 37.2698 60.2443 37.288 60.1887 37.2889C59.8102 37.2919 59.4316 37.2926 59.0529 37.2913L54.0681 37.3024L36.1235 37.2926L31.9363 37.3061C31.1964 37.3033 30.4531 37.2719 29.7112 37.2917C29.5818 37.2951 29.3955 37.3201 29.2837 37.3186C29.2793 37.2872 29.2811 37.2954 29.287 37.2633L29.2984 37.2711C29.3436 37.1995 29.3763 36.8857 29.3354 36.7918C29.4164 36.7138 29.4987 36.6881 29.6118 36.681C30.0129 36.6561 30.4498 36.6662 30.8527 36.6664L33.2331 36.6711C33.6021 36.6741 34.0157 36.7355 34.3623 36.6438C34.3796 36.6558 34.4012 36.6711 34.4276 36.6894C35.0804 36.7171 35.7554 36.6928 36.4089 36.6982C36.5508 36.6992 36.8663 36.6717 36.9425 36.7033C38.0958 36.6707 39.3953 36.7016 40.5605 36.7025L48.9266 36.7108C49.0203 36.5141 49.1427 36.0836 49.2093 35.8576C49.2907 35.5831 49.4151 35.2187 49.4771 34.9459C49.5455 34.7753 49.6219 34.4982 49.6729 34.3186C49.6811 34.2918 49.6881 34.2512 49.694 34.2228C49.6399 34.1601 49.3165 34.1687 49.2962 33.9425C49.2703 33.6534 49.3006 33.3681 49.3158 33.0795C49.3253 32.8595 49.3297 32.6393 49.3293 32.4191ZM51.5847 34.3045C51.4366 34.68 51.3149 35.1687 51.1939 35.565C51.085 35.9214 50.9257 36.3843 50.8659 36.7373L51.8386 36.7428C52.0976 36.7443 53.4833 36.7699 53.6428 36.7214C53.5697 36.4516 52.9792 34.3313 52.8857 34.2744C52.839 34.2458 52.74 34.2624 52.6861 34.2652C52.4855 34.3081 51.8307 34.3021 51.5847 34.3045ZM60.155 36.8653L60.1301 36.8369C59.8714 36.8219 59.5792 36.8245 59.3194 36.829C58.245 36.8479 57.1552 36.8036 56.0819 36.8432C56.2936 36.8891 60.0694 36.8994 60.155 36.8653Z" fill="#8B8A8C"/>
<path d="M52.6874 34.2651C52.7413 34.2623 52.8403 34.2458 52.887 34.2743C52.9805 34.3313 53.571 36.4515 53.6441 36.7213C53.4846 36.7699 52.0989 36.7443 51.8399 36.7428L50.8672 36.7372C50.927 36.3843 51.0863 35.9213 51.1952 35.565C51.3163 35.1686 51.4379 34.6799 51.586 34.3044C51.832 34.3021 52.4868 34.3081 52.6874 34.2651Z" fill="#CCCCCD" fill-opacity="0.01"/>
<path d="M56.0859 36.8458C57.1592 36.8063 58.249 36.8505 59.3233 36.8316C59.5832 36.8271 59.8754 36.8245 60.1341 36.8396L60.159 36.8679C60.0734 36.9021 56.2976 36.8918 56.0859 36.8458Z" fill="#8B8A8C" fill-opacity="0.960784"/>
<path d="M39.9551 39.0187C39.8589 38.9543 39.77 38.9992 39.7188 38.9611C39.7293 38.9532 39.7401 38.9452 39.7509 38.9375C40.3986 38.9609 41.0472 38.9482 41.6948 38.9706C41.7381 38.9721 41.8184 39.0075 41.8433 39.0189C41.3804 39.0355 40.4004 39.0464 39.9551 39.0187Z" fill="#A6A5A7" fill-opacity="0.0156863"/>
<path d="M75.4948 25.7247C75.5206 25.6333 75.3531 24.6341 75.3305 24.4644L74.4885 18.6026C74.4007 17.9736 74.2588 17.3151 74.2489 16.6868C74.2458 16.4917 74.435 16.1714 74.5875 16.0769C75.0566 15.7864 76.0462 15.6471 76.4044 16.1857C76.4803 16.2998 76.5217 16.5623 76.5514 16.7019C76.6759 17.4824 76.7859 18.2674 76.9032 19.0495C77.1681 20.7776 77.4238 22.5071 77.6702 24.2378L78.0051 26.4985C78.0799 26.9916 78.3355 28.2216 78.2605 28.6314C78.2121 28.8959 78.0385 29.0594 77.8187 29.2037C77.6841 29.2922 75.0449 29.7067 74.7157 29.7414C74.6024 29.7533 74.4896 29.7544 74.3778 29.7304C74.2616 29.7055 74.0863 29.6372 74.0117 29.5446C73.9648 29.4865 73.9644 29.3658 73.9252 29.2945C73.8499 29.1575 73.8944 28.932 73.9402 28.7895C73.996 28.616 74.072 28.5297 74.2387 28.4458C74.4416 28.3439 75.2592 28.1491 75.4902 28.1538C75.6185 28.1202 75.7465 28.0855 75.8742 28.0496C75.8678 27.9065 75.8691 27.6567 75.7976 27.5389C75.7223 27.5271 74.8676 27.6852 74.7058 27.7113L72.633 28.0302L65.0185 29.2148L62.5457 29.5963C62.4029 29.6187 61.6814 29.7231 61.5927 29.7607C61.2389 29.7725 60.5336 29.9467 60.2561 29.9383C60.0997 29.9855 59.8068 30.0216 59.6343 30.0491C59.1815 30.1239 58.7276 30.1928 58.2728 30.2558C57.6011 30.3554 56.8579 30.5059 56.1883 30.5734C56.0944 30.6172 55.2951 30.7222 55.127 30.7525C55.3547 30.763 55.3336 30.7405 55.514 30.8576C55.3894 30.8853 55.2645 30.9107 55.1388 30.934L55.187 31.3767L55.1982 31.5551C55.0768 31.5441 54.1809 31.6899 53.9923 31.7201L50.9996 32.1734C50.6202 32.2355 50.2407 32.2947 49.8605 32.3511C49.7201 32.3724 49.4572 32.4248 49.3285 32.4189C49.334 32.24 49.3661 32.0202 49.2568 31.8806C49.1228 31.7985 48.6704 31.9316 48.4623 31.9341C48.4218 31.898 48.4242 31.9006 48.3716 31.8844C48.2669 31.9023 48.1586 31.9067 48.0524 31.914L48.0383 31.8913L48.0229 31.9022L48.1276 31.843C47.8904 31.856 44.9421 32.3125 44.9012 32.3418L44.9234 32.3438C44.9833 32.3487 45.1705 32.3413 45.191 32.3596C45.0693 32.3984 44.9833 32.3955 44.8374 32.4485C44.9087 32.4625 44.9507 32.4667 45.0235 32.4721C44.886 32.5252 44.6532 32.5331 44.4957 32.5636C44.0191 32.656 43.3965 32.7016 42.9349 32.8266C42.9505 33.0143 42.9756 33.2517 43.0048 33.4358C43.1743 34.5012 43.0638 34.4114 42.1195 34.6834C41.7452 34.7943 41.3723 34.909 41.0007 35.0278C40.3894 35.2241 40.0053 35.4076 39.4447 35.6125C39.2361 35.6909 39.0015 35.8004 38.7952 35.8917C38.556 35.9753 37.0796 36.5903 36.9417 36.7031C36.8656 36.6715 36.5501 36.699 36.4081 36.698C35.7547 36.6926 35.0796 36.7169 34.4268 36.6891C34.4004 36.6709 34.3789 36.6556 34.3615 36.6436C34.6224 36.5308 37.0818 35.4183 37.0981 35.3794C36.6376 35.1315 36.7703 34.9281 36.6843 34.4989C36.6594 34.3754 36.6196 33.8995 36.5353 33.8456C36.1019 33.8647 35.5804 33.9799 35.1421 34.0437C35.0095 34.0628 34.6128 34.1195 34.5074 34.147L34.4638 34.0955C34.3309 34.0409 33.9133 34.2166 33.826 34.1172L33.9146 34.0776C33.558 34.0862 32.7912 34.24 32.4158 34.3021L29.5919 34.7472L18.4591 36.5108L16.337 36.847C16.1694 36.8743 15.6622 36.9018 15.5591 37.0004C15.5045 37.1132 15.5576 37.3879 15.5638 37.5417C15.7553 37.5409 16.1939 37.5617 16.3411 37.4964C16.6693 37.4621 17.2785 37.3772 17.567 37.5344C17.6877 37.6002 17.8273 37.9046 17.8537 38.0459C17.8895 38.2382 17.895 38.4038 17.7736 38.5763C17.6429 38.7619 17.4302 38.848 17.2111 38.8841C16.5413 38.995 15.8762 39.1032 15.2025 39.19C14.8443 39.2394 14.4765 39.3318 14.1139 39.3275C13.6821 39.3224 13.4052 39.0113 13.35 38.609C13.1988 37.5065 13.0645 36.4 12.9356 35.2948L12.4058 31.0511L11.9225 27.1411C11.8594 26.6024 11.7672 26.0178 11.7356 25.4947C11.7046 24.9808 12.2598 24.6214 12.7293 24.589C13.0918 24.564 13.3572 24.5019 13.6749 24.7426C13.878 24.8964 13.9534 24.9942 14.0067 25.2415C14.0844 25.6076 14.1308 26.0178 14.1754 26.3885L14.3878 28.1192L14.8647 32.0102C14.9874 33.0224 15.1093 34.0785 15.265 35.0862L56.4205 28.6962L69.4231 26.6844C70.7461 26.474 72.0819 26.2943 73.4011 26.0634C73.8002 25.9935 74.3413 25.9462 74.7098 25.8584C74.8225 25.8606 75.3688 25.7521 75.4948 25.7247Z" fill="#A6A5A7"/>
<path d="M33.9168 34.0718C34.0171 34.0168 36.5786 33.6396 36.9397 33.5809L42.5766 32.6933L44.1269 32.4511C44.3197 32.42 44.7287 32.3392 44.9034 32.3359L44.9256 32.3379C44.9854 32.3429 45.1727 32.3354 45.1931 32.3538C45.0715 32.3926 44.9854 32.3897 44.8396 32.4427C44.9109 32.4567 44.9529 32.4609 45.0257 32.4662C44.8882 32.5194 44.6554 32.5272 44.4979 32.5578C44.0213 32.6502 43.3986 32.6958 42.937 32.8208C42.9527 33.0085 42.9777 33.2459 43.007 33.4299C43.1764 34.4954 43.066 34.4056 42.1216 34.6776C41.7474 34.7884 41.3744 34.9031 41.0028 35.0219C40.3916 35.2183 40.0074 35.4017 39.4468 35.6067C39.2382 35.6851 39.0037 35.7946 38.7973 35.8859C38.5582 35.9695 37.0818 36.5845 36.9439 36.6973C36.8677 36.6657 36.5522 36.6932 36.4103 36.6921C35.7568 36.6868 35.0818 36.711 34.429 36.6833C34.4026 36.6651 34.381 36.6498 34.3637 36.6378C34.6246 36.525 37.084 35.4125 37.1003 35.3736C36.6398 35.1257 36.7725 34.9223 36.6864 34.4931C36.6616 34.3695 36.6217 33.8937 36.5375 33.8398C36.104 33.8589 35.5826 33.9741 35.1443 34.0379C35.0116 34.057 34.6149 34.1137 34.5095 34.1412L34.466 34.0896C34.3331 34.0351 33.9155 34.2108 33.8281 34.1113L33.9168 34.0718Z" fill="#7D7C7E"/>
<path d="M48.1282 31.8405C48.1757 31.8101 54.6003 30.8189 55.1275 30.75C55.3552 30.7606 55.3341 30.738 55.5145 30.8551C55.39 30.8828 55.265 30.9083 55.1394 30.9315L55.1876 31.3742L55.1988 31.5526C55.0773 31.5417 54.1814 31.6874 53.9929 31.7177L51.0001 32.1709C50.6208 32.233 50.2413 32.2923 49.8611 32.3486C49.7207 32.3699 49.4578 32.4224 49.329 32.4164C49.3345 32.2375 49.3667 32.0178 49.2573 31.8782C49.1233 31.796 48.671 31.9291 48.4628 31.9316C48.4223 31.8955 48.4248 31.8981 48.3722 31.8819C48.2674 31.8998 48.1592 31.9043 48.0529 31.9115L48.0388 31.8888L48.0234 31.8998L48.1282 31.8405Z" fill="#7D7C7E"/>
<path d="M72.2955 23.0687C72.3959 23.085 72.4949 23.0617 72.5943 23.0454C72.9265 22.991 73.2885 22.9401 73.6042 23.0988C73.8819 23.2037 74.0808 23.4111 74.2 23.6753C74.3435 23.9961 74.3518 24.3593 74.2231 24.6861C74.101 24.9951 73.857 25.2434 73.5459 25.3753C73.2427 25.5041 72.7851 25.5371 72.4414 25.594L69.9439 25.9856L61.5523 27.2957L29.5281 32.2837L21.9397 33.4742C20.8595 33.6535 19.7775 33.8222 18.6938 33.98L17.6832 34.1403C17.4302 34.1818 17.234 34.2488 16.9788 34.1672C16.8808 34.1382 16.765 34.1074 16.6717 34.0658C16.0876 33.8043 15.9626 32.9965 16.1981 32.4678C16.3533 32.1195 16.6426 31.8855 17.0108 31.7721C17.1143 31.7354 17.2222 31.7149 17.3306 31.697C18.1039 31.5694 18.8825 31.4702 19.6537 31.3298L49.6212 26.6388L62.2236 24.6708L65.8623 24.0984C66.4005 24.0141 67.0735 23.9311 67.5921 23.8279C67.6575 23.8311 68.7888 23.6395 68.8207 23.6198C68.9534 23.6258 72.1202 23.1271 72.2955 23.0687Z" fill="#013C73"/>
<path d="M61.9762 21.6565C62.1163 21.6698 62.3971 21.607 62.5438 21.5828L63.6912 21.3991C64.6215 21.2506 65.4167 21.0605 65.8723 22.0947C65.9163 22.2985 65.9293 22.4521 65.9236 22.6593C65.8618 23.164 65.4985 23.6158 64.9753 23.715C64.2754 23.8478 63.5597 23.936 62.8543 24.0429L58.7566 24.6708L50.537 25.9368C49.9999 26.0162 48.3777 26.335 47.9154 26.2769C47.5113 26.2261 47.2384 26.0142 46.9927 25.7085C46.7586 26.1644 46.5951 26.3266 46.1592 26.6025C45.9984 26.7042 45.5665 26.8232 45.3801 26.8536C44.1621 27.0526 42.9361 27.2328 41.7157 27.4169L35.8884 28.3161L29.7388 29.277C29.4809 29.3161 29.2246 29.3694 28.9606 29.4032C27.8453 29.5461 26.4584 30.0434 25.6513 28.9611C25.3522 28.56 25.2671 28.0426 25.3508 27.5668C25.4412 27.0751 25.7283 26.6388 26.1487 26.3541C26.3745 26.201 26.6607 26.0767 26.9322 26.0245C27.9702 25.8251 29.025 25.6882 30.0681 25.5126C30.0712 25.5042 30.0745 25.4959 30.0778 25.4875C30.2285 25.4897 30.8626 25.4107 30.9865 25.3561C31.1033 25.359 31.522 25.2803 31.6714 25.2581L33.6193 24.9505L39.9374 23.958C40.2371 23.9109 42.2569 23.6394 42.3826 23.559C42.4875 23.5875 43.3834 23.4375 43.5262 23.3971C43.5313 23.397 43.5364 23.3969 43.5414 23.3968C44.5256 23.2782 45.6288 22.9016 46.4593 23.6604C46.7313 23.9089 46.8406 24.0892 47.0065 24.4174C47.3234 23.9469 47.7643 23.8499 48.3029 23.7658C48.7936 23.6891 49.3042 23.6277 49.7894 23.5284C49.8884 23.5308 50.4824 23.4322 50.6255 23.4088C51.2195 23.3116 51.8244 23.2348 52.4169 23.1399C52.7152 23.0864 53.084 23.0548 53.3441 23.0044C54.1102 22.8558 54.878 22.7655 55.6468 22.6386C56.0846 22.5664 56.7 22.5019 57.1194 22.4022C57.2035 22.4164 57.8204 22.3255 57.8948 22.2848C58.0296 22.2935 59.062 22.1202 59.2611 22.0879L61.2151 21.7822C61.3097 21.7968 61.8864 21.6938 61.9762 21.6565Z" fill="#013C73"/>
<path d="M17.6204 26.5165C18.0375 24.7212 19.8037 23.5452 21.6679 23.8214C23.532 24.0976 24.8612 25.7324 24.7141 27.5676C24.5669 29.4028 22.9932 30.8156 21.1078 30.8052C19.2224 30.7947 17.6652 29.3646 17.5393 27.5279C17.516 27.1887 17.5433 26.848 17.6204 26.5165Z" fill="#013C73"/>
<path d="M69.0973 40.7979C69.4459 40.7708 69.9336 40.8301 70.2903 40.7753C70.3532 40.7657 70.3708 40.7571 70.4511 40.75C70.3851 40.7887 70.3277 40.8046 70.3123 40.8791C70.2758 41.0583 70.2984 41.3066 70.3037 41.4946C70.316 41.6069 70.665 41.6943 70.7798 41.7457C70.9057 41.8026 71.0258 41.8707 71.1391 41.9489C71.6507 42.3031 71.9941 42.8445 72.091 43.4496C72.1985 44.0612 72.0494 44.6891 71.6771 45.192C70.8936 46.2431 69.3497 46.4779 68.2844 45.7004C67.7735 45.334 67.4329 44.7842 67.3376 44.1722C67.2452 43.5557 67.4102 42.9287 67.7952 42.4316C68.061 42.0872 68.6645 41.637 69.1101 41.5859C69.1704 41.5236 69.1477 41.0058 69.1521 40.8763C69.1449 40.8589 69.1103 40.8157 69.0973 40.7979Z" fill="#4C4B4C"/>
<path d="M69.1055 40.7979C69.454 40.7708 69.9418 40.8301 70.2984 40.7753C70.3614 40.7657 70.379 40.7571 70.4593 40.75C70.3933 40.7887 70.3358 40.8046 70.3204 40.8791C70.2839 41.0583 70.3066 41.3066 70.3118 41.4946L70.2982 41.5362C70.2414 41.5766 69.72 41.4821 69.5937 41.4991C69.4982 41.512 69.2632 41.5448 69.1801 41.5341C69.1523 41.4037 69.1886 41.089 69.1636 40.8999L69.1603 40.8763C69.153 40.8589 69.1185 40.8157 69.1055 40.7979Z" fill="#8B8A8C"/>
<path d="M69.6147 42.238C70.5209 42.1789 71.3044 42.8494 71.3632 43.7344C71.4217 44.6192 70.7335 45.3827 69.827 45.4381C68.9231 45.4935 68.144 44.824 68.0855 43.9415C68.027 43.0592 68.711 42.2971 69.6147 42.238Z" fill="#A6A5A7"/>
<path d="M20.0451 40.75C20.3864 40.7872 20.6706 40.8265 21.0203 40.8039C21.088 40.7996 21.3647 40.7973 21.414 40.8082C21.4015 40.84 21.3877 40.8677 21.3826 40.9006C21.387 40.9968 21.3676 41.5751 21.4302 41.5908C22.7694 41.9272 23.6734 43.4992 22.9233 44.903C22.6263 45.451 22.121 45.8635 21.5159 46.0514C20.2444 46.4353 18.8655 45.7773 18.4778 44.5209C18.2945 43.9145 18.368 43.2618 18.6817 42.7087C18.9981 42.1508 19.4894 41.7906 20.1037 41.6121C20.1604 41.5955 20.1809 41.5968 20.2359 41.5691C20.2392 41.4056 20.2733 40.9133 20.1967 40.8104C20.1288 40.7953 20.1234 40.7919 20.0609 40.7586L20.0451 40.75Z" fill="#4C4B4C"/>
<path d="M20.043 40.75C20.3843 40.7872 20.6685 40.8265 21.0182 40.8039C21.0859 40.7996 21.3626 40.7973 21.4119 40.8082C21.3994 40.84 21.3857 40.8677 21.3805 40.9006C21.3606 41.1118 21.3601 41.3242 21.3562 41.5364L21.3202 41.5549C21.0943 41.4658 20.4711 41.507 20.2338 41.5691C20.2371 41.4056 20.2712 40.9133 20.1946 40.8104C20.1267 40.7953 20.1213 40.7919 20.0588 40.7586L20.043 40.75Z" fill="#8B8A8C"/>
<path d="M20.6807 42.2376C21.5849 42.1818 22.3648 42.8511 22.4243 43.7336C22.4838 44.6163 21.8005 45.3795 20.8966 45.4401C19.9893 45.5007 19.204 44.8305 19.1442 43.9446C19.0845 43.0584 19.7731 42.2935 20.6807 42.2376Z" fill="#A6A5A7"/>
<path d="M81.163 12.4453C81.3604 12.6154 81.9243 13.465 82.086 13.7055L83.1802 15.3087C83.299 15.4841 83.4354 15.7199 83.5476 15.8783C83.4508 15.9274 82.1118 15.9146 81.9159 15.9156L81.9137 20.8095L81.1001 20.8124L80.3626 20.809C80.3241 20.5252 80.3459 20.1698 80.3492 19.8772L80.3588 18.4919C80.3635 17.6893 80.3142 16.686 80.3474 15.9183C79.8101 15.9012 79.2389 15.9083 78.6992 15.9067L80.3875 13.5203C80.5278 13.3214 81.0202 12.5874 81.163 12.4453Z" fill="#E15F11"/>
<path d="M7.48164 26.8682C7.95524 26.8488 8.56375 26.8667 9.04472 26.8725L9.04582 31.4616C9.27566 31.4614 10.4519 31.4495 10.6152 31.4817C10.6148 31.4987 10.6183 31.5164 10.6139 31.5328C10.594 31.6063 8.74514 34.1707 8.53621 34.4139C8.51361 34.4626 8.25533 34.8027 8.21273 34.8111C8.00316 34.5522 5.87474 31.5821 5.86719 31.4745C5.97611 31.4559 6.32252 31.4632 6.44923 31.463C6.79073 31.462 7.13222 31.4593 7.47368 31.4549C7.50474 31.0327 7.48171 30.3326 7.48155 29.8848L7.48164 26.8682Z" fill="#E15F11"/>
<path d="M20.8711 37.5428C21.458 37.3686 22.1459 37.2302 22.7485 37.0816L26.511 36.1288L29.8738 35.2664C29.982 35.2393 30.6175 35.064 30.6788 35.0625C30.8065 35.159 30.9132 35.5592 30.8232 35.681C30.6278 35.7877 29.6683 35.9916 29.3866 36.0648L25.0357 37.1922C24.7782 37.2573 24.0099 37.4119 23.8232 37.5114C24.049 37.6268 27.7985 37.4764 28.2839 37.5389C28.4388 37.5589 28.8593 37.5151 29.0575 37.5559C28.9396 37.5881 27.9444 37.5718 27.7572 37.572L23.3753 37.5451C22.5772 37.5378 21.6538 37.5752 20.8711 37.5428Z" fill="#7D7C7E" fill-opacity="0.984314"/>
<path d="M33.9151 34.0781L33.8264 34.1177C33.9138 34.2171 34.3314 34.0414 34.4643 34.096L34.5079 34.1475C34.358 34.1722 33.6918 34.2521 33.6174 34.2968C33.5096 34.2962 32.3402 34.4766 32.2033 34.5127C31.5371 34.572 30.8368 34.746 30.1761 34.8381C29.534 34.9275 28.9107 35.0437 28.2718 35.1419C27.1743 35.3099 26.078 35.4835 24.9826 35.6633C24.6764 35.7137 23.9659 35.8003 23.6981 35.8705C23.5993 35.8697 22.7922 35.9928 22.6776 36.0188C22.4234 36.0858 21.7621 36.152 21.6157 36.2059C21.4761 36.2123 21.4295 36.2213 21.2925 36.2521C21.1907 36.2583 21.1556 36.2626 21.0567 36.286C20.7692 36.3131 20.5177 36.373 20.2349 36.4248L15.8644 37.1004L15.9231 37.5006C16.0508 37.4986 16.2169 37.4916 16.3415 37.4969C16.1944 37.5622 15.7558 37.5414 15.5643 37.5423C15.5581 37.3884 15.505 37.1137 15.5596 37.0009C15.6627 36.9023 16.1699 36.8748 16.3374 36.8475L18.4596 36.5113L29.5923 34.7477L32.4163 34.3026C32.7917 34.2405 33.5585 34.0867 33.9151 34.0781Z" fill="#848384" fill-opacity="0.988235"/>
<path d="M61.5952 29.7615C61.6839 29.7238 62.4054 29.6195 62.5482 29.5971L65.021 29.2155L72.6355 28.031L74.7083 27.712C74.8701 27.686 75.7248 27.5278 75.8001 27.5397C75.8716 27.6574 75.8703 27.9073 75.8767 28.0504C75.749 28.0863 75.621 28.121 75.4927 28.1545C75.5343 28.0551 75.4879 27.8945 75.4703 27.777C75.223 27.8335 74.7059 27.8923 74.4364 27.9328L72.3457 28.2543L65.4357 29.3244C64.3884 29.485 63.3374 29.6707 62.2877 29.8198C62.1345 29.8415 61.5526 29.9427 61.4349 29.934C61.4335 29.8614 61.4014 29.9111 61.4294 29.8339C61.5039 29.809 61.5253 29.7985 61.5952 29.7615Z" fill="#848384" fill-opacity="0.988235"/>
<path d="M56.1914 30.5726C56.8609 30.505 57.6042 30.3546 58.2759 30.255C58.7307 30.1919 59.1846 30.123 59.6374 30.0483C59.8099 30.0208 60.1027 29.9847 60.2592 29.9375L60.2226 30.0059C60.3401 30.0752 60.2988 29.9717 60.3995 30.1008C59.6246 30.2312 58.8488 30.3555 58.0722 30.4739C57.5643 30.5497 57.0112 30.6174 56.5107 30.7088C56.4174 30.7022 56.3045 30.7147 56.246 30.6731L56.3093 30.6844C56.2359 30.6573 56.2257 30.6356 56.1914 30.5726Z" fill="#848384" fill-opacity="0.980392"/>
<path d="M44.9037 32.3347C44.9446 32.3054 47.8929 31.849 48.1301 31.8359L48.0253 31.8952L48.0407 31.8843L48.0548 31.907C48.1611 31.8997 48.2693 31.8952 48.3741 31.8773C48.4266 31.8936 48.4242 31.891 48.4647 31.9271C48.3373 31.9726 48.1602 31.9836 48.0187 32.0067C47.6218 32.0741 47.2238 32.1352 46.8247 32.1901C46.406 32.251 45.9481 32.3429 45.543 32.3978L45.5362 32.4206C45.3204 32.4102 45.2042 32.4693 45.026 32.465C44.9532 32.4597 44.9111 32.4555 44.8398 32.4415C44.9857 32.3885 45.0717 32.3914 45.1934 32.3526C45.173 32.3342 44.9857 32.3417 44.9259 32.3367L44.9037 32.3347Z" fill="#848384" fill-opacity="0.976471"/>
<path d="M55.1867 31.3721C55.2604 31.2865 55.2089 31.1249 55.2632 30.9531C55.3363 31.4708 55.3537 31.9912 55.3545 32.5153C55.355 32.8142 55.4263 33.4729 55.2197 33.6967C54.9757 33.9612 54.9094 33.7938 54.8445 34.2346C54.5638 33.6881 55.0489 33.8151 55.1149 33.6649C55.3145 33.2114 55.2287 32.0343 55.1979 31.5505L55.1867 31.3721Z" fill="#A6A5A7" fill-opacity="0.0117647"/>
<path d="M70.7578 37.6735L70.819 37.5781C70.9664 37.62 70.9552 38.4855 70.9409 38.6226C70.9123 38.899 70.9954 40.3321 70.8804 40.4633C70.8427 40.4249 70.8243 40.3961 70.7776 40.3765C70.8485 40.2575 70.799 37.9616 70.7578 37.6735Z" fill="#4C4B4C" fill-opacity="0.0117647"/>
<path d="M17.0106 31.7733C16.9806 31.7275 16.9603 31.7373 16.9297 31.6861C17.1828 31.5613 18.7736 31.3702 19.152 31.3054C19.1844 31.2999 19.5723 31.3272 19.6535 31.3309C18.8824 31.4713 18.1038 31.5705 17.3304 31.6981C17.222 31.716 17.1142 31.7365 17.0106 31.7733Z" fill="#03528E" fill-opacity="0.0156863"/>
<path d="M49.7888 23.5321C49.7268 23.4414 49.5858 23.5308 49.4883 23.4674C49.5565 23.4293 49.6575 23.4603 49.7904 23.4332C50.4179 23.3054 51.1041 23.225 51.7376 23.1283C51.8146 23.1166 52.3382 23.1396 52.4163 23.1435C51.8238 23.2385 51.219 23.3153 50.6249 23.4125C50.4819 23.4359 49.8878 23.5344 49.7888 23.5321Z" fill="#01336B" fill-opacity="0.0196078"/>
<path d="M60.2592 29.9354C60.5366 29.9437 61.242 29.7696 61.5958 29.7578C61.5258 29.7948 61.5045 29.8053 61.4299 29.8302C61.402 29.9074 61.4341 29.8577 61.4354 29.9303C61.2968 29.974 60.5201 30.0997 60.3996 30.0987C60.2988 29.9696 60.3401 30.0731 60.2227 30.0038L60.2592 29.9354Z" fill="url(#paint0_linear_1402_1886)"/>
<path d="M72.2971 23.0722C72.1968 23.0249 72.1059 23.0652 72.0273 23.0205C72.0586 22.9995 72.0452 23.0007 72.0823 22.9968C72.3158 22.9722 73.5895 22.7275 73.6577 23.0415L73.6058 23.1022C73.29 22.9436 72.9281 22.9945 72.5959 23.0489C72.4964 23.0651 72.3974 23.0885 72.2971 23.0722Z" fill="#03528E" fill-opacity="0.0117647"/>
<path d="M56.1864 30.5703C56.2207 30.6333 56.2308 30.6551 56.3043 30.6822L56.241 30.6708C56.2995 30.7124 56.4123 30.6999 56.5056 30.7065C56.217 30.7536 55.7939 30.8324 55.512 30.8544C55.3316 30.7374 55.3527 30.7599 55.125 30.7494C55.2931 30.7191 56.0924 30.6141 56.1864 30.5703Z" fill="url(#paint1_linear_1402_1886)"/>
<path d="M17.5375 27.5335L17.5199 27.514C17.4653 27.5563 17.5422 27.8345 17.4734 27.9151L17.4498 27.886C17.4299 27.6602 17.3885 26.52 17.5463 26.4062L17.5691 26.4145C17.5808 26.4533 17.5835 26.4641 17.604 26.4981L17.6186 26.5221C17.5416 26.8536 17.5143 27.1943 17.5375 27.5335Z" fill="#03528E" fill-opacity="0.01"/>
<path d="M32.2031 34.5128C32.34 34.4767 33.5094 34.2962 33.6172 34.2969C33.6883 34.3454 33.7978 34.3392 33.885 34.3444C33.7618 34.4808 32.4374 34.5411 32.2031 34.5128Z" fill="#8B8A8C" fill-opacity="0.0156863"/>
<path d="M67.5929 23.8311C67.4783 23.7492 67.4327 23.8256 67.2891 23.7624C67.3689 23.7447 67.4734 23.7461 67.5515 23.7313C67.7515 23.6934 68.7166 23.4981 68.8666 23.5468C68.8195 23.5726 68.649 23.591 68.5859 23.6002C68.6655 23.6121 68.7414 23.6169 68.8215 23.6231C68.7896 23.6427 67.6583 23.8343 67.5929 23.8311Z" fill="#01336B" fill-opacity="0.0196078"/>
<path d="M42.381 23.5671C42.3207 23.5378 42.2041 23.5314 42.1328 23.5242L42.1568 23.5007C42.2569 23.5039 42.311 23.4943 42.4085 23.4693C42.7854 23.3729 43.1429 23.3837 43.5247 23.4051C43.3819 23.4455 42.4859 23.5955 42.381 23.5671Z" fill="#01336B" fill-opacity="0.0196078"/>
<path d="M74.708 25.8581C74.5661 25.8582 74.459 25.8565 74.3179 25.8447L74.3135 25.8147L74.2924 25.8201L74.3012 25.842L74.2695 25.8317L74.2772 25.8239C74.5133 25.76 75.0521 25.6522 75.2968 25.6564L75.3098 25.6737C75.1848 25.7466 75.2119 25.6733 75.0915 25.7149C75.2317 25.7149 75.3536 25.7161 75.4931 25.7244C75.367 25.7518 74.8207 25.8603 74.708 25.8581Z" fill="#848384" fill-opacity="0.0117647"/>
<path d="M30.0801 25.4921L30.0632 25.4489L29.8748 25.4465L29.8555 25.4226L29.8847 25.4028C30.1072 25.4024 30.7705 25.2131 30.9001 25.3078C30.8495 25.3326 30.743 25.325 30.681 25.325C30.7419 25.3522 30.9129 25.3566 30.9888 25.3607C30.8649 25.4153 30.2308 25.4943 30.0801 25.4921Z" fill="#03528E" fill-opacity="0.0117647"/>
<path d="M55.0353 34.8584C55.0602 34.8041 55.0723 34.7611 55.0857 34.7031C55.1458 34.7903 55.3242 35.4591 55.3114 35.6086L55.2978 35.7871C55.252 35.606 55.0287 34.9725 55.0353 34.8584Z" fill="#8B8A8C" fill-opacity="0.0196078"/>
<path d="M22.6758 36.0154C22.7904 35.9894 23.5975 35.8663 23.6963 35.8672L23.7116 35.9026C23.7776 35.9067 23.8349 35.9093 23.901 35.9095L23.906 35.9374C23.5749 36.0397 23.0174 36.0302 22.6758 36.0154Z" fill="#8B8A8C" fill-opacity="0.0156863"/>
<path d="M57.1204 22.4066C57.017 22.347 56.9396 22.4032 56.8516 22.3446C56.8782 22.3244 57.5281 22.2497 57.6137 22.25C57.623 22.25 57.859 22.2846 57.8958 22.2892C57.8214 22.3299 57.2045 22.4207 57.1204 22.4066Z" fill="#01336B" fill-opacity="0.0156863"/>
<path d="M38.7969 35.8886C39.0033 35.7973 39.2378 35.6878 39.4464 35.6094C39.4776 35.6388 39.4897 35.6532 39.5315 35.6659L39.5386 35.7028C39.3183 35.862 39.0655 35.9183 38.7969 35.8886Z" fill="#8B8A8C" fill-opacity="0.0117647"/>
<path d="M21.0601 36.2812C21.1526 36.3498 21.2267 36.3002 21.3062 36.3448L21.2879 36.37L21.2654 36.3706C20.8311 36.3861 20.7526 36.4692 20.2383 36.42C20.5211 36.3682 20.7726 36.3083 21.0601 36.2812Z" fill="#A6A5A7" fill-opacity="0.0196078"/>
<path d="M61.2147 21.785C61.1243 21.716 61.0574 21.7715 60.9219 21.7339C60.9602 21.7066 61.4042 21.6696 61.488 21.6442C61.5852 21.6147 61.8574 21.6508 61.9758 21.6594C61.886 21.6966 61.3093 21.7996 61.2147 21.785Z" fill="#01336B" fill-opacity="0.0196078"/>
<path d="M49.4748 34.9469C49.4605 34.7284 49.4299 34.4429 49.5567 34.25C49.6301 34.262 49.607 34.2582 49.6706 34.3196C49.6196 34.4992 49.5432 34.7763 49.4748 34.9469Z" fill="#7D7C7E" fill-opacity="0.0117647"/>
<path d="M7.35506 30.8438C7.38903 30.8998 7.37491 31.2418 7.40736 31.3882C6.89485 31.3767 6.38219 31.3731 5.86956 31.3775L5.83203 31.364C5.87063 31.3418 7.1964 31.339 7.34527 31.337C7.35332 31.1796 7.35231 31.0029 7.35506 30.8438Z" fill="#E15F11" fill-opacity="0.0235294"/>
<path d="M65.8711 22.0995L65.9298 22.0234C66.0288 22.113 66.0863 22.6208 66.011 22.7365C65.9925 22.6006 65.9928 22.4451 65.9892 22.3067C65.9778 22.4316 65.9862 22.5724 65.9224 22.664C65.9281 22.4569 65.9151 22.3033 65.8711 22.0995Z" fill="#00176C" fill-opacity="0.0235294"/>
<path d="M29.2139 37.3411C29.2099 37.1091 29.1912 36.9768 29.3356 36.7891C29.3765 36.8829 29.3437 37.1968 29.2986 37.2683L29.2872 37.2606C29.2812 37.2926 29.2795 37.2844 29.2839 37.3158L29.2139 37.3411Z" fill="#8B8A8C" fill-opacity="0.941176"/>
<path d="M20.9535 23.6903C21.0924 23.6844 21.4991 23.6852 21.6316 23.7205C21.5364 23.7445 21.4593 23.7427 21.3621 23.7454C21.2289 23.7433 20.8119 23.7454 20.7031 23.7213C20.7725 23.6901 20.8735 23.6938 20.9535 23.6903Z" fill="#00176C" fill-opacity="0.0235294"/>
<path d="M21.293 36.2493C21.43 36.2186 21.4766 36.2096 21.6162 36.2031C21.7542 36.2096 21.8744 36.219 22.012 36.2304C21.8396 36.3333 21.4983 36.2603 21.293 36.2493Z" fill="#A6A5A7" fill-opacity="0.0117647"/>
<path d="M45.542 32.3984C45.648 32.4006 45.9235 32.407 46.0179 32.4388C45.8856 32.448 45.7015 32.5161 45.604 32.4909L45.5352 32.4213L45.542 32.3984Z" fill="#A6A5A7" fill-opacity="0.0117647"/>
<path d="M72.2172 43.5859C72.2733 43.657 72.2531 44.013 72.2352 44.1079L72.2302 44.1084C72.1828 44.0338 72.2107 43.6893 72.2172 43.5859Z" fill="#4C4B4C" fill-opacity="0.0235294"/>
<path d="M44.8398 23.0892C44.9719 23.0723 45.275 23.0487 45.3912 23.1105C45.2475 23.1184 44.9714 23.1382 44.8398 23.0892Z" fill="#00176C" fill-opacity="0.0196078"/>
<path d="M53.4142 25.9038C53.4805 25.9001 53.5449 25.8895 53.6046 25.9149C53.5493 25.9323 53.5044 25.9333 53.4464 25.9396L53.4263 25.9695C53.3616 25.9823 53.291 25.9823 53.2246 25.985L53.2169 25.9582L53.1953 25.9638C53.2272 25.9394 53.3313 25.9303 53.3969 25.9095L53.4142 25.9038Z" fill="#03528E" fill-opacity="0.0117647"/>
<path d="M36.2695 33.9202C36.3503 33.9116 36.4323 33.8925 36.5034 33.9226C36.5386 33.9926 36.5197 34.0282 36.5109 34.1159C36.4966 34.0517 36.4942 34.036 36.4664 33.9771C36.3547 33.9425 36.3648 33.9909 36.2695 33.9202Z" fill="#8B8A8C" fill-opacity="0.0196078"/>
<path d="M37.8223 24.1689C37.918 24.159 37.9787 24.1482 38.0751 24.1651L38.0808 24.2019C37.9831 24.207 37.9176 24.2147 37.8203 24.1955L37.8223 24.1689Z" fill="#01336B" fill-opacity="0.0156863"/>
<path d="M64.3398 24.2081C64.4569 24.1934 64.5403 24.1821 64.6485 24.2288C64.526 24.2475 64.454 24.2548 64.3398 24.2081Z" fill="#01336B" fill-opacity="0.0156863"/>
<path d="M29.6172 25.4581C29.6984 25.4341 29.7818 25.4453 29.8579 25.4793C29.7756 25.4907 29.677 25.5147 29.6172 25.4581Z" fill="#013C73" fill-opacity="0.0156863"/>
<path d="M57.4336 25.2858C57.5344 25.2718 57.6142 25.2602 57.7036 25.307C57.5969 25.33 57.5282 25.3386 57.4336 25.2858Z" fill="#013C73" fill-opacity="0.0156863"/>
<path d="M33.8585 24.7843C33.9556 24.7732 33.9758 24.7669 34.0695 24.784L34.0751 24.8221C33.9807 24.8251 33.9496 24.8295 33.8555 24.809L33.8585 24.7843Z" fill="#013C73" fill-opacity="0.0156863"/>
<path d="M33.5508 24.8327C33.6271 24.8238 33.7206 24.8013 33.7745 24.8544C33.6984 24.8822 33.6216 24.8652 33.5508 24.8327Z" fill="#013C73" fill-opacity="0.0156863"/>
<path d="M60.4102 24.8325C60.5094 24.8202 60.5655 24.8055 60.6493 24.8534C60.5496 24.8744 60.5008 24.871 60.4102 24.8325Z" fill="#013C73" fill-opacity="0.0156863"/>
<path d="M36.922 33.857C37.2278 33.8315 37.8018 33.8135 37.9789 34.0966C37.9957 34.2448 37.9662 34.284 37.9017 34.4131C37.6355 34.4423 37.0695 34.4172 36.8835 34.1884C36.8459 34.0092 36.8619 34.0501 36.922 33.857Z" fill="#FB5301"/>
<path d="M50.1306 35.6538C50.3942 35.6384 51.0044 35.6399 51.1462 35.889C51.1786 36.0183 51.1329 36.0905 51.0817 36.2118C50.777 36.2379 50.2267 36.26 50.0536 35.9743C50.0415 35.8244 50.0685 35.7853 50.1306 35.6538Z" fill="#FB5301"/>
<path d="M45.2226 34.9766C45.5238 34.9805 46.0937 34.9693 46.2484 35.2532C46.2515 35.4059 46.2226 35.4345 46.1398 35.5556C45.8281 35.5356 45.2558 35.5838 45.1097 35.2723C45.1054 35.1302 45.1448 35.0907 45.2226 34.9766Z" fill="#FB5301"/>
<path d="M54.0539 33.9075C54.7027 33.8707 54.5042 34.6554 54.296 34.9899C54.1636 34.9831 54.1066 34.9903 53.9968 34.9096C53.8234 34.6924 53.9027 34.0968 54.0539 33.9075Z" fill="#FB5301"/>
<path d="M53.5835 35.2812C54.2995 35.3677 53.7534 35.9005 53.471 36.1118C53.3347 36.1319 53.2179 36.0741 53.1347 35.9673C53.0691 35.6225 53.3495 35.4538 53.5835 35.2812Z" fill="#FB5301"/>
<line x1="38.1633" y1="53.5125" x2="50.8387" y2="53.5125" stroke="#E67429" stroke-width="0.975029" stroke-linecap="round"/>
<path d="M13.4839 60.5085V59.7273H18.9385V60.5085H16.6515V67H15.7709V60.5085H13.4839ZM19.6176 67V61.5455H20.4273V62.3693H20.4841C20.5835 62.0994 20.7635 61.8804 21.0239 61.7124C21.2843 61.5443 21.5779 61.4602 21.9046 61.4602C21.9661 61.4602 22.0431 61.4614 22.1354 61.4638C22.2277 61.4661 22.2976 61.4697 22.3449 61.4744V62.3267C22.3165 62.3196 22.2514 62.3089 22.1496 62.2947C22.0502 62.2782 21.9448 62.2699 21.8335 62.2699C21.5684 62.2699 21.3316 62.3255 21.1233 62.4368C20.9173 62.5457 20.754 62.6972 20.6333 62.8913C20.5149 63.0831 20.4557 63.3021 20.4557 63.5483V67H19.6176ZM25.4593 67.1136C24.9337 67.1136 24.4803 66.9976 24.0992 66.7656C23.7204 66.5312 23.428 66.2045 23.222 65.7855C23.0184 65.3641 22.9166 64.8741 22.9166 64.3153C22.9166 63.7566 23.0184 63.2642 23.222 62.8381C23.428 62.4096 23.7145 62.0758 24.0814 61.8366C24.4507 61.5952 24.8816 61.4744 25.374 61.4744C25.6581 61.4744 25.9387 61.5218 26.2156 61.6165C26.4926 61.7112 26.7448 61.8651 26.972 62.0781C27.1993 62.2888 27.3804 62.5682 27.5154 62.9162C27.6503 63.2642 27.7178 63.6927 27.7178 64.2017V64.5568H23.5132V63.8324H26.8655C26.8655 63.5246 26.8039 63.25 26.6808 63.0085C26.5601 62.767 26.3873 62.5765 26.1624 62.4368C25.9398 62.2971 25.6771 62.2273 25.374 62.2273C25.0402 62.2273 24.7514 62.3101 24.5075 62.4759C24.2661 62.6392 24.0802 62.8523 23.95 63.1151C23.8198 63.3778 23.7547 63.6596 23.7547 63.9602V64.4432C23.7547 64.8551 23.8257 65.2043 23.9678 65.4908C24.1122 65.7749 24.3122 65.9915 24.5679 66.1406C24.8236 66.2874 25.1207 66.3608 25.4593 66.3608C25.6794 66.3608 25.8783 66.33 26.0558 66.2685C26.2358 66.2045 26.3908 66.1098 26.521 65.9844C26.6512 65.8565 26.7519 65.6979 26.8229 65.5085L27.6325 65.7358C27.5473 66.0104 27.4041 66.2519 27.2029 66.4602C27.0016 66.6662 26.753 66.8272 26.4571 66.9432C26.1612 67.0568 25.8286 67.1136 25.4593 67.1136ZM29.8307 63.7188V67H28.9926V61.5455H29.8023V62.3977H29.8733C30.0012 62.1207 30.1953 61.8982 30.4557 61.7301C30.7161 61.5597 31.0523 61.4744 31.4642 61.4744C31.8335 61.4744 32.1567 61.5502 32.4337 61.7017C32.7107 61.8509 32.9261 62.0781 33.08 62.3835C33.2339 62.6866 33.3108 63.0701 33.3108 63.5341V67H32.4727V63.5909C32.4727 63.1624 32.3615 62.8286 32.1389 62.5895C31.9164 62.348 31.611 62.2273 31.2227 62.2273C30.9552 62.2273 30.7161 62.2853 30.5054 62.4013C30.2971 62.5173 30.1325 62.6866 30.0118 62.9091C29.8911 63.1316 29.8307 63.4015 29.8307 63.7188ZM36.9019 67.1136C36.4474 67.1136 36.0461 66.9988 35.6981 66.7692C35.3501 66.5372 35.0778 66.2105 34.8813 65.7891C34.6848 65.3653 34.5866 64.8646 34.5866 64.2869C34.5866 63.714 34.6848 63.2169 34.8813 62.7955C35.0778 62.3741 35.3512 62.0485 35.7016 61.8189C36.052 61.5893 36.4568 61.4744 36.9161 61.4744C37.2712 61.4744 37.5518 61.5336 37.7577 61.652C37.9661 61.768 38.1247 61.9006 38.2336 62.0497C38.3448 62.1965 38.4313 62.3172 38.4928 62.4119H38.5638V59.7273H39.4019V67H38.5922V66.1619H38.4928C38.4313 66.2614 38.3437 66.3868 38.23 66.5384C38.1164 66.6875 37.9542 66.8213 37.7435 66.9396C37.5328 67.0556 37.2523 67.1136 36.9019 67.1136ZM37.0155 66.3608C37.3517 66.3608 37.6358 66.2732 37.8678 66.098C38.0998 65.9205 38.2762 65.6754 38.3969 65.3629C38.5177 65.0481 38.578 64.6847 38.578 64.2727C38.578 63.8655 38.5189 63.5092 38.4005 63.2038C38.2821 62.8961 38.1069 62.657 37.8749 62.4865C37.6429 62.3137 37.3564 62.2273 37.0155 62.2273C36.6604 62.2273 36.3645 62.3184 36.1278 62.5007C35.8934 62.6806 35.717 62.9257 35.5986 63.2358C35.4826 63.5436 35.4246 63.8892 35.4246 64.2727C35.4246 64.661 35.4838 65.0137 35.6022 65.331C35.7229 65.6458 35.9005 65.8968 36.1349 66.0838C36.3716 66.2685 36.6652 66.3608 37.0155 66.3608ZM41.8912 59.7273V67H41.0532V59.7273H41.8912ZM45.7132 67.1136C45.1876 67.1136 44.7342 66.9976 44.3531 66.7656C43.9743 66.5312 43.6819 66.2045 43.4759 65.7855C43.2723 65.3641 43.1705 64.8741 43.1705 64.3153C43.1705 63.7566 43.2723 63.2642 43.4759 62.8381C43.6819 62.4096 43.9684 62.0758 44.3353 61.8366C44.7046 61.5952 45.1355 61.4744 45.6279 61.4744C45.912 61.4744 46.1926 61.5218 46.4695 61.6165C46.7465 61.7112 46.9987 61.8651 47.2259 62.0781C47.4532 62.2888 47.6343 62.5682 47.7693 62.9162C47.9042 63.2642 47.9717 63.6927 47.9717 64.2017V64.5568H43.7671V63.8324H47.1194C47.1194 63.5246 47.0579 63.25 46.9347 63.0085C46.814 62.767 46.6412 62.5765 46.4163 62.4368C46.1937 62.2971 45.931 62.2273 45.6279 62.2273C45.2941 62.2273 45.0053 62.3101 44.7615 62.4759C44.52 62.6392 44.3341 62.8523 44.2039 63.1151C44.0737 63.3778 44.0086 63.6596 44.0086 63.9602V64.4432C44.0086 64.8551 44.0796 65.2043 44.2217 65.4908C44.3661 65.7749 44.5661 65.9915 44.8218 66.1406C45.0775 66.2874 45.3746 66.3608 45.7132 66.3608C45.9333 66.3608 46.1322 66.33 46.3097 66.2685C46.4897 66.2045 46.6447 66.1098 46.7749 65.9844C46.9052 65.8565 47.0058 65.6979 47.0768 65.5085L47.8865 65.7358C47.8012 66.0104 47.658 66.2519 47.4568 66.4602C47.2555 66.6662 47.007 66.8272 46.711 66.9432C46.4151 67.0568 46.0825 67.1136 45.7132 67.1136ZM50.0846 63.7188V67H49.2465V61.5455H50.0562V62.3977H50.1272C50.2551 62.1207 50.4492 61.8982 50.7096 61.7301C50.97 61.5597 51.3062 61.4744 51.7181 61.4744C52.0874 61.4744 52.4106 61.5502 52.6876 61.7017C52.9646 61.8509 53.18 62.0781 53.3339 62.3835C53.4878 62.6866 53.5647 63.0701 53.5647 63.5341V67H52.7267V63.5909C52.7267 63.1624 52.6154 62.8286 52.3928 62.5895C52.1703 62.348 51.8649 62.2273 51.4767 62.2273C51.2091 62.2273 50.97 62.2853 50.7593 62.4013C50.551 62.5173 50.3865 62.6866 50.2657 62.9091C50.145 63.1316 50.0846 63.4015 50.0846 63.7188ZM55.2098 67V59.7273H56.0479V62.4119H56.1189C56.1804 62.3172 56.2657 62.1965 56.3746 62.0497C56.4858 61.9006 56.6444 61.768 56.8504 61.652C57.0587 61.5336 57.3405 61.4744 57.6956 61.4744C58.1549 61.4744 58.5597 61.5893 58.9101 61.8189C59.2604 62.0485 59.5339 62.3741 59.7304 62.7955C59.9269 63.2169 60.0251 63.714 60.0251 64.2869C60.0251 64.8646 59.9269 65.3653 59.7304 65.7891C59.5339 66.2105 59.2616 66.5372 58.9136 66.7692C58.5656 66.9988 58.1643 67.1136 57.7098 67.1136C57.3594 67.1136 57.0789 67.0556 56.8682 66.9396C56.6575 66.8213 56.4953 66.6875 56.3817 66.5384C56.268 66.3868 56.1804 66.2614 56.1189 66.1619H56.0194V67H55.2098ZM56.0336 64.2727C56.0336 64.6847 56.094 65.0481 56.2148 65.3629C56.3355 65.6754 56.5119 65.9205 56.7439 66.098C56.9759 66.2732 57.26 66.3608 57.5961 66.3608C57.9465 66.3608 58.2389 66.2685 58.4733 66.0838C58.71 65.8968 58.8876 65.6458 59.0059 65.331C59.1267 65.0137 59.1871 64.661 59.1871 64.2727C59.1871 63.8892 59.1279 63.5436 59.0095 63.2358C58.8935 62.9257 58.7171 62.6806 58.4804 62.5007C58.246 62.3184 57.9513 62.2273 57.5961 62.2273C57.2552 62.2273 56.9688 62.3137 56.7368 62.4865C56.5048 62.657 56.3296 62.8961 56.2112 63.2038C56.0928 63.5092 56.0336 63.8655 56.0336 64.2727ZM64.7446 64.7699V61.5455H65.5827V67H64.7446V66.0767H64.6878C64.5599 66.3537 64.3611 66.5893 64.0912 66.7834C63.8213 66.9751 63.4804 67.071 63.0684 67.071C62.7275 67.071 62.4245 66.9964 62.1594 66.8473C61.8942 66.6958 61.6859 66.4685 61.5344 66.1655C61.3828 65.8601 61.3071 65.4754 61.3071 65.0114V61.5455H62.1452V64.9545C62.1452 65.3523 62.2564 65.6695 62.479 65.9062C62.7039 66.143 62.9903 66.2614 63.3383 66.2614C63.5467 66.2614 63.7586 66.2081 63.974 66.1016C64.1918 65.995 64.3741 65.8317 64.5209 65.6115C64.67 65.3913 64.7446 65.1108 64.7446 64.7699ZM67.1176 67V61.5455H67.9273V62.3693H67.9841C68.0835 62.0994 68.2635 61.8804 68.5239 61.7124C68.7843 61.5443 69.0779 61.4602 69.4046 61.4602C69.4661 61.4602 69.5431 61.4614 69.6354 61.4638C69.7277 61.4661 69.7976 61.4697 69.8449 61.4744V62.3267C69.8165 62.3196 69.7514 62.3089 69.6496 62.2947C69.5502 62.2782 69.4448 62.2699 69.3335 62.2699C69.0684 62.2699 68.8316 62.3255 68.6233 62.4368C68.4173 62.5457 68.254 62.6972 68.1333 62.8913C68.0149 63.0831 67.9557 63.3021 67.9557 63.5483V67H67.1176ZM72.874 69.1591C72.4692 69.1591 72.1212 69.107 71.83 69.0028C71.5388 68.901 71.2961 68.7661 71.102 68.598C70.9102 68.4323 70.7575 68.2547 70.6439 68.0653L71.3115 67.5966C71.3873 67.696 71.4832 67.8097 71.5992 67.9375C71.7152 68.0677 71.8738 68.1802 72.075 68.2749C72.2786 68.3719 72.545 68.4205 72.874 68.4205C73.3144 68.4205 73.6778 68.3139 73.9642 68.1009C74.2507 67.8878 74.3939 67.554 74.3939 67.0994V65.9915H74.3229C74.2613 66.0909 74.1737 66.214 74.0601 66.3608C73.9488 66.5052 73.7878 66.6342 73.5771 66.7479C73.3688 66.8591 73.0871 66.9148 72.732 66.9148C72.2916 66.9148 71.8963 66.8106 71.5459 66.6023C71.1979 66.3939 70.9221 66.0909 70.7185 65.6932C70.5173 65.2955 70.4166 64.8125 70.4166 64.2443C70.4166 63.6856 70.5149 63.1991 70.7114 62.7848C70.9079 62.3681 71.1813 62.0462 71.5317 61.8189C71.8821 61.5893 72.2869 61.4744 72.7462 61.4744C73.1013 61.4744 73.383 61.5336 73.5914 61.652C73.8021 61.768 73.963 61.9006 74.0743 62.0497C74.1879 62.1965 74.2755 62.3172 74.3371 62.4119H74.4223V61.5455H75.232V67.1562C75.232 67.625 75.1254 68.0062 74.9124 68.2997C74.7017 68.5956 74.4176 68.8123 74.0601 68.9496C73.705 69.0893 73.3096 69.1591 72.874 69.1591ZM72.8456 66.1619C73.1818 66.1619 73.4659 66.085 73.6979 65.9311C73.9299 65.7772 74.1063 65.5559 74.227 65.267C74.3477 64.9782 74.4081 64.6326 74.4081 64.2301C74.4081 63.8371 74.3489 63.4903 74.2306 63.1896C74.1122 62.889 73.937 62.6534 73.705 62.483C73.473 62.3125 73.1865 62.2273 72.8456 62.2273C72.4905 62.2273 72.1946 62.3172 71.9578 62.4972C71.7235 62.6771 71.5471 62.9186 71.4287 63.2216C71.3127 63.5246 71.2547 63.8608 71.2547 64.2301C71.2547 64.6089 71.3139 64.9439 71.4323 65.2351C71.553 65.5239 71.7306 65.7512 71.9649 65.9169C72.2017 66.0803 72.4952 66.1619 72.8456 66.1619ZM32.0679 81.1385C31.4832 81.1385 30.9813 80.9905 30.5622 80.6946C30.1456 80.3963 29.8248 79.9666 29.5999 79.4055C29.3773 78.8421 29.2661 78.1638 29.2661 77.3707C29.2684 76.5777 29.3809 75.9029 29.6034 75.3466C29.8283 74.7879 30.1491 74.3617 30.5658 74.0682C30.9848 73.7746 31.4855 73.6278 32.0679 73.6278C32.6503 73.6278 33.151 73.7746 33.57 74.0682C33.9891 74.3617 34.3099 74.7879 34.5324 75.3466C34.7573 75.9053 34.8698 76.58 34.8698 77.3707C34.8698 78.1662 34.7573 78.8456 34.5324 79.4091C34.3099 79.9702 33.9891 80.3987 33.57 80.6946C33.1534 80.9905 32.6527 81.1385 32.0679 81.1385ZM32.0679 80.027C32.5225 80.027 32.8811 79.8033 33.1439 79.3558C33.4091 78.906 33.5416 78.2443 33.5416 77.3707C33.5416 76.7931 33.4813 76.3078 33.3605 75.9148C33.2398 75.5218 33.0693 75.2259 32.8492 75.027C32.629 74.8258 32.3686 74.7251 32.0679 74.7251C31.6157 74.7251 31.2583 74.95 30.9955 75.3999C30.7327 75.8473 30.6001 76.5043 30.5977 77.3707C30.5954 77.9508 30.6534 78.4384 30.7718 78.8338C30.8925 79.2292 31.0629 79.5275 31.2831 79.7287C31.5033 79.9276 31.7649 80.027 32.0679 80.027ZM37.6938 77.0902C37.3789 77.0902 37.0925 77.0144 36.8344 76.8629C36.5764 76.709 36.3704 76.5031 36.2165 76.245C36.0626 75.9846 35.9857 75.697 35.9857 75.3821C35.9857 75.0696 36.0626 74.7843 36.2165 74.5263C36.3704 74.2659 36.5764 74.0599 36.8344 73.9084C37.0925 73.7545 37.3789 73.6776 37.6938 73.6776C38.0087 73.6776 38.2951 73.7545 38.5532 73.9084C38.8112 74.0599 39.0172 74.2659 39.1711 74.5263C39.325 74.7843 39.4019 75.0696 39.4019 75.3821C39.4019 75.697 39.325 75.9846 39.1711 76.245C39.0172 76.5031 38.8112 76.709 38.5532 76.8629C38.2951 77.0144 38.0087 77.0902 37.6938 77.0902ZM37.6938 76.1811C37.8406 76.1811 37.9743 76.1456 38.0951 76.0746C38.2158 76.0036 38.3117 75.9077 38.3827 75.7869C38.4561 75.6662 38.4928 75.5312 38.4928 75.3821C38.4928 75.2353 38.4561 75.1016 38.3827 74.9808C38.3117 74.8601 38.2158 74.7642 38.0951 74.6932C37.9743 74.6222 37.8406 74.5866 37.6938 74.5866C37.547 74.5866 37.4133 74.6222 37.2925 74.6932C37.1718 74.7642 37.0747 74.8601 37.0013 74.9808C36.9303 75.1016 36.8948 75.2353 36.8948 75.3821C36.8948 75.5289 36.9303 75.6638 37.0013 75.7869C37.0724 75.9077 37.1682 76.0036 37.289 76.0746C37.4121 76.1456 37.547 76.1811 37.6938 76.1811ZM44.9834 76.8345V77.8928H39.9834V76.8345H44.9834ZM48.2398 81.0994C47.7284 81.0994 47.2739 81.0118 46.8762 80.8366C46.4808 80.6615 46.1683 80.4176 45.9387 80.1051C45.709 79.7926 45.5871 79.4316 45.5729 79.022H46.9081C46.92 79.2185 46.9851 79.3902 47.1034 79.5369C47.2218 79.6813 47.3792 79.7938 47.5757 79.8743C47.7722 79.9548 47.9924 79.995 48.2362 79.995C48.4967 79.995 48.7275 79.95 48.9287 79.8601C49.1299 79.7678 49.2874 79.6399 49.401 79.4766C49.5146 79.3132 49.5703 79.125 49.5679 78.9119C49.5703 78.6918 49.5135 78.4976 49.3975 78.3295C49.2815 78.1615 49.1134 78.0301 48.8932 77.9354C48.6754 77.8407 48.4126 77.7933 48.1048 77.7933H47.4621V76.7777H48.1048C48.3582 76.7777 48.5795 76.7339 48.7689 76.6463C48.9607 76.5587 49.111 76.4356 49.2199 76.277C49.3288 76.116 49.3821 75.9302 49.3797 75.7195C49.3821 75.5135 49.3359 75.3348 49.2412 75.1832C49.1489 75.0294 49.0175 74.9098 48.847 74.8246C48.6789 74.7393 48.4813 74.6967 48.254 74.6967C48.0315 74.6967 47.8255 74.737 47.6361 74.8175C47.4467 74.898 47.294 75.0128 47.178 75.1619C47.062 75.3087 47.0004 75.4839 46.9933 75.6875H45.7256C45.7351 75.2803 45.8522 74.9228 46.0771 74.6151C46.3044 74.3049 46.6075 74.0634 46.9862 73.8906C47.365 73.7154 47.79 73.6278 48.2611 73.6278C48.7464 73.6278 49.1678 73.719 49.5253 73.9013C49.8852 74.0812 50.1633 74.3239 50.3598 74.6293C50.5563 74.9347 50.6546 75.272 50.6546 75.6413C50.6569 76.0509 50.5362 76.3942 50.2923 76.6712C50.0509 76.9482 49.7336 77.1293 49.3406 77.2145V77.2713C49.852 77.3423 50.2438 77.5317 50.5161 77.8395C50.7907 78.1449 50.9268 78.5249 50.9244 78.9794C50.9244 79.3866 50.8084 79.7512 50.5764 80.0732C50.3468 80.3928 50.0296 80.6437 49.6247 80.826C49.2223 81.0083 48.7606 81.0994 48.2398 81.0994ZM54.8316 81.1385C54.2468 81.1385 53.7449 80.9905 53.3259 80.6946C52.9092 80.3963 52.5885 79.9666 52.3635 79.4055C52.141 78.8421 52.0297 78.1638 52.0297 77.3707C52.0321 76.5777 52.1446 75.9029 52.3671 75.3466C52.592 74.7879 52.9128 74.3617 53.3295 74.0682C53.7485 73.7746 54.2492 73.6278 54.8316 73.6278C55.414 73.6278 55.9147 73.7746 56.3337 74.0682C56.7528 74.3617 57.0735 74.7879 57.2961 75.3466C57.521 75.9053 57.6334 76.58 57.6334 77.3707C57.6334 78.1662 57.521 78.8456 57.2961 79.4091C57.0735 79.9702 56.7528 80.3987 56.3337 80.6946C55.9171 80.9905 55.4163 81.1385 54.8316 81.1385ZM54.8316 80.027C55.2861 80.027 55.6448 79.8033 55.9076 79.3558C56.1727 78.906 56.3053 78.2443 56.3053 77.3707C56.3053 76.7931 56.2449 76.3078 56.1242 75.9148C56.0035 75.5218 55.833 75.2259 55.6128 75.027C55.3927 74.8258 55.1323 74.7251 54.8316 74.7251C54.3794 74.7251 54.0219 74.95 53.7591 75.3999C53.4964 75.8473 53.3638 76.5043 53.3614 77.3707C53.359 77.9508 53.4171 78.4384 53.5354 78.8338C53.6562 79.2292 53.8266 79.5275 54.0468 79.7287C54.267 79.9276 54.5286 80.027 54.8316 80.027ZM60.4575 77.0902C60.1426 77.0902 59.8561 77.0144 59.5981 76.8629C59.3401 76.709 59.1341 76.5031 58.9802 76.245C58.8263 75.9846 58.7494 75.697 58.7494 75.3821C58.7494 75.0696 58.8263 74.7843 58.9802 74.5263C59.1341 74.2659 59.3401 74.0599 59.5981 73.9084C59.8561 73.7545 60.1426 73.6776 60.4575 73.6776C60.7723 73.6776 61.0588 73.7545 61.3169 73.9084C61.5749 74.0599 61.7809 74.2659 61.9347 74.5263C62.0886 74.7843 62.1656 75.0696 62.1656 75.3821C62.1656 75.697 62.0886 75.9846 61.9347 76.245C61.7809 76.5031 61.5749 76.709 61.3169 76.8629C61.0588 77.0144 60.7723 77.0902 60.4575 77.0902ZM60.4575 76.1811C60.6043 76.1811 60.738 76.1456 60.8588 76.0746C60.9795 76.0036 61.0754 75.9077 61.1464 75.7869C61.2198 75.6662 61.2565 75.5312 61.2565 75.3821C61.2565 75.2353 61.2198 75.1016 61.1464 74.9808C61.0754 74.8601 60.9795 74.7642 60.8588 74.6932C60.738 74.6222 60.6043 74.5866 60.4575 74.5866C60.3107 74.5866 60.1769 74.6222 60.0562 74.6932C59.9355 74.7642 59.8384 74.8601 59.765 74.9808C59.694 75.1016 59.6585 75.2353 59.6585 75.3821C59.6585 75.5289 59.694 75.6638 59.765 75.7869C59.836 75.9077 59.9319 76.0036 60.0526 76.0746C60.1758 76.1456 60.3107 76.1811 60.4575 76.1811Z" fill="#1E293B"/>
<defs>
<linearGradient id="paint0_linear_1402_1886" x1="60.8803" y1="30.036" x2="60.8146" y2="29.8255" gradientUnits="userSpaceOnUse">
<stop stop-color="#89898B" stop-opacity="0.964706"/>
<stop offset="1" stop-color="#818082"/>
</linearGradient>
<linearGradient id="paint1_linear_1402_1886" x1="55.8832" y1="30.7606" x2="55.8457" y2="30.6219" gradientUnits="userSpaceOnUse">
<stop stop-color="#858486" stop-opacity="0.952941"/>
<stop offset="1" stop-color="#828082"/>
</linearGradient>
</defs>
</svg>
